<?xml version="1.0" encoding="UTF-8"?>
<!DOCTYPE svg PUBLIC "-//W3C//DTD SVG 1.1//EN" "http://www.w3.org/Graphics/SVG/1.1/DTD/svg11.dtd">
<!-- Creator: CorelDRAW -->
<svg xmlns="http://www.w3.org/2000/svg" xml:space="preserve" width="1.33333in" height="0.666661in" style="shape-rendering:geometricPrecision; text-rendering:geometricPrecision; image-rendering:optimizeQuality; fill-rule:evenodd; clip-rule:evenodd"
viewBox="0 0 1.33333 0.666661"
 xmlns:xlink="http://www.w3.org/1999/xlink">
 <defs>
  <style type="text/css">
   <![CDATA[
    .str0 {stroke:#ACB21A;stroke-width:0.003}
    .fil6 {fill:none}
    .fil5 {fill:#4E5A62}
    .fil4 {fill:#CD7232}
    .fil7 {fill:#F1F1F2}
    .fil2 {fill:#FEFEFE}
    .fil3 {fill:#037CD5}
    .fil0 {fill:#ACB21A}
    .fil8 {fill:#4E5A62;fill-rule:nonzero}
    .fil1 {fill:#FEFEFE;fill-rule:nonzero}
   ]]>
  </style>
   <clipPath id="id0">
    <path d="M0.691374 0.216157c-0.0160433,-0.00034252 -0.027937,-0.014252 -0.0224764,-0.0317362 0.00446063,-0.0142835 0.0210472,-0.0270236 0.0380709,-0.0210197 0.0130039,0.00458268 0.0206654,0.0200787 0.0109488,0.0373228 -0.0037874,0.00672047 -0.00927165,0.0127835 -0.0137795,0.0181024 -0.00261417,0.00308661 -0.0121732,0.0133937 -0.015122,0.0156417l0.00235827 -0.018311zm-0.0070748 0.052378c0.00444882,-0.00312205 0.0245787,-0.0242795 0.0296339,-0.0299882 0.00796063,-0.00899606 0.0185472,-0.0227008 0.0240984,-0.0353228 0.0141575,-0.032189 -0.0066378,-0.0610315 -0.0367047,-0.0611142 -0.0303976,-8.66142e-005 -0.0584685,0.0282717 -0.053,0.060626 0.00489764,0.0289921 0.0209567,0.0464055 0.0359724,0.0657992z"/>
   </clipPath>
     <mask id="id1">
  <linearGradient id="id2" gradientUnits="userSpaceOnUse" x1="0.697118" y1="0.154496" x2="0.673354" y2="0.188142">
   <stop offset="0" style="stop-opacity:1; stop-color:white"/>
   <stop offset="1" style="stop-opacity:0; stop-color:white"/>
  </linearGradient>
      <rect style="fill:url(#id2)" x="0.643929" y="0.148752" width="0.0826181" height="0.0451299"/>
     </mask>
     <mask id="id3">
  <linearGradient id="id4" gradientUnits="userSpaceOnUse" x1="0.696394" y1="0.255976" x2="0.727992" y2="0.211244">
   <stop offset="0" style="stop-opacity:1; stop-color:white"/>
   <stop offset="1" style="stop-opacity:0; stop-color:white"/>
  </linearGradient>
      <rect style="fill:url(#id4)" x="0.684587" y="0.198874" width="0.0552165" height="0.0694724"/>
     </mask>
 </defs>
 <g id="Layer_x0020_1">
  <metadata id="CorelCorpID_0Corel-Layer"/>
  <polygon class="fil0" points="0.231677,0.245677 1.12606,0.245677 1.08983,0.492598 0.195539,0.492264 "/>
  <path class="fil0 str0" d="M1.03348 0.410437c0.00402756,-0.0101339 0.011374,-0.0177913 0.0217953,-0.0226772 0.0151457,-0.00709843 0.0368976,-0.00822047 0.0533858,-0.00822047 0.010748,0 0.0220866,0.000551181 0.032626,0.00277165 0.00752362,0.00158268 0.0157362,0.00429528 0.0215906,0.00947638 0.00525591,0.00465354 0.00887795,0.0104409 0.0104803,0.0172874 0.00183071,0.00780315 0.000937008,0.0173819 -0.000224409,0.0252441l-0.00543307 0.0367795c-0.000224409,0.00151181 -0.000582677,0.00422047 -0.000295276,0.00573622 7.87402e-006,4.33071e-005 1.9685e-005,0.000110236 3.54331e-005,0.000169291l0.00325984 0.00257874 -0.00187402 0.0126693 -0.056374 0 -0.00150787 -0.00545276c-9.84252e-005,-0.000354331 -0.000188976,-0.000704724 -0.000271654,-0.00106299 -0.00381496,0.00217717 -0.00785827,0.00396457 -0.0121102,0.00535433 -0.00997244,0.00325984 -0.0209685,0.00422441 -0.0314094,0.00422441 -0.012563,0 -0.0279055,-0.00154331 -0.0383268,-0.00925591 -0.00472047,-0.0035 -0.00786614,-0.00780709 -0.00968898,-0.0126417 -0.00354724,0.00365748 -0.00763386,0.00690551 -0.0122874,0.0097126 -0.0159685,0.00962992 -0.0357953,0.0123543 -0.0541457,0.0123543 -0.0182205,0 -0.0388268,-0.00294094 -0.0532598,-0.0150354 -0.00582283,-0.00488189 -0.00984646,-0.0105669 -0.0123465,-0.0168228l-0.00422835 0.028626 -0.0572008 0c-0.00333858,0.000511811 -0.00668898,0.00092126 -0.0100512,0.00122047 -0.00361417,0.000318898 -0.00724409,0.000480315 -0.010874,0.000480315 -0.00507874,0 -0.0102087,-0.000271654 -0.0152323,-0.00105118 -0.00432283,-0.000669291 -0.00865748,-0.00173228 -0.0126772,-0.00347638 -0.00585039,-0.00254331 -0.0104724,-0.00668504 -0.0127283,-0.0127283 -0.00116929,-0.00313386 -0.00158268,-0.00681496 -0.00158268,-0.0105433 -0.0040315,0.00902756 -0.011126,0.0159016 -0.0208701,0.0204843 -0.0162205,0.00762598 -0.0394213,0.00884646 -0.0570866,0.00884646 -0.0154764,0 -0.0366339,-0.00118504 -0.0503386,-0.00911024 -0.00512205,-0.00296063 -0.00898031,-0.00669685 -0.0116378,-0.0110512l-0.0025 0.0169291 -0.0584252 0 0.0210039 -0.14215 0.0584252 0 -0.00719291 0.048685c0.00385433,-0.00482283 0.0089685,-0.00868504 0.0151575,-0.0115906 0.0151024,-0.00709843 0.0360433,-0.00833858 0.0525,-0.00833858 0.0151969,0 0.0353898,0.00121654 0.0489567,0.00873228 0.00265354,0.0014685 0.00499606,0.00314173 0.00701969,0.005l0.00119685 -0.00811417 0.0151457 0 0.00459843 -0.0311378 0.0579134 0 -0.00459843 0.0311378 0.00857874 0 0.00507874 -0.034374 0.0584252 0 -0.00869291 0.0588346c0.00417323,-0.00588189 0.00949213,-0.0110394 0.0159685,-0.0154173 0.0165551,-0.011185 0.0369449,-0.0146614 0.0565906,-0.0146614 0.0165433,0 0.0358386,0.00217323 0.0498976,0.0116496 0.00775591,0.00523228 0.0129449,0.0120079 0.0158425,0.0199291zm0.0028189 0.0163071c3.93701e-006,0.000181102 3.93701e-006,0.000366142 3.93701e-006,0.000551181 0.000326772,-0.000188976 0.000653543,-0.000374016 0.000980315,-0.000551181l-0.000984252 0zm-0.00951969 0.00816535l-0.0493268 0 -0.00140157 -0.00564173c-0.00053937,-0.00216142 -0.00148031,-0.00423622 -0.00334646,-0.00555118 -0.00222835,-0.00156299 -0.00548425,-0.00190945 -0.00812205,-0.00190945 -0.00506693,0 -0.0100236,0.00107874 -0.0140236,0.00433858 -0.00377165,0.00307874 -0.00559449,0.00720472 -0.00629921,0.0119724 -0.000527559,0.00357087 -0.000433071,0.00749213 0.00209449,0.0103189 0.00262992,0.00294094 0.00682283,0.00359055 0.0105748,0.00359055 0.00416929,0 0.0080748,-0.000909449 0.0115787,-0.00320866 0.00312992,-0.00205118 0.00521654,-0.00474016 0.00642913,-0.00827559l0.00172441 -0.00502362 0.0495866 0c0.000177165,-0.000204724 0.000350394,-0.000409449 0.000531496,-0.000610236zm-0.192551 -0.00884646l-0.00858268 0 -0.00197638 0.0133858c-0.000326772,0.00220866 -0.00119685,0.00812598 -0.0011378,0.0115118 0.000468504,3.54331e-005 0.000933071,4.33071e-005 0.00122047,4.33071e-005l0.0067874 0 0.00368898 -0.0249409zm-0.0797638 0c0.00319291,0.0020748 0.00603543,0.0046378 0.00808268,0.00782677 0.00142913,0.00222047 0.00238583,0.00461024 0.00298031,0.00709055l0.00220472 -0.0149173 -0.0132677 0zm-0.126071 0.00999213l-0.0016063 0.0108661 0.0114094 -1.9685e-005c-0.00435433,-0.00255118 -0.00766535,-0.00619685 -0.00980315,-0.0108465zm-0.19476 -0.0286024c0.00331496,-0.00503937 0.00748031,-0.00958661 0.0125079,-0.0135866 0.0126181,-0.0100472 0.0276614,-0.0141535 0.0436614,-0.0141535 0.0079252,0 0.0160157,0.000846457 0.0236102,0.00319291 0.0028937,0.000897638 0.00568898,0.00200394 0.00835039,0.00334646l0.000755906 -0.00415748 0.0552953 0 -0.0122244 0.0827087c-0.00092126,0.00625197 -0.00195276,0.0131102 -0.00372441,0.0191772 -0.00119685,0.00408661 -0.00290157,0.00813386 -0.00545276,0.0115669 -0.00749606,0.0100827 -0.0173031,0.017315 -0.0290197,0.0217953 -0.0134843,0.00515748 -0.0290906,0.00655906 -0.0434252,0.00655906 -0.014626,0 -0.0330354,-0.00134646 -0.0460866,-0.00855512 -0.0116378,-0.00642913 -0.0177992,-0.0168071 -0.0183465,-0.0300551l-0.000318898 -0.00774016 0.0239567 0c-0.00272441,-0.00175984 -0.0052874,-0.00384252 -0.00764961,-0.0062874 -0.00266142,-0.00275984 -0.0048189,-0.00571654 -0.00651575,-0.00883858 -0.00433465,0.00714173 -0.0102047,0.0133307 -0.0176654,0.0184528 -0.0162323,0.0111457 -0.0362835,0.0146063 -0.0556339,0.0146063 -0.0180079,0 -0.0382205,-0.00298819 -0.052378,-0.0150827 -0.00106693,-0.000909449 -0.00207874,-0.00185433 -0.00303543,-0.00283465l-0.00216929 0.014685 -0.137717 0 0.0203504 -0.137724 0.0626772 0 -0.0131772 0.0891614 0.0578543 0c9.44882e-005,-0.00253543 0.000338583,-0.00506693 0.000708661,-0.0075748 0.00264567,-0.0179016 0.0112717,-0.0323898 0.0262362,-0.042626 0.0162717,-0.0111299 0.0363071,-0.0146299 0.055685,-0.0146299 0.0179803,0 0.038248,0.00296063 0.0523465,0.0151024 0.00466142,0.00401575 0.00812205,0.00855906 0.0105433,0.0134921zm-0.0851693 0.0308071c-0.000492126,0.00332283 -0.000417323,0.00699606 0.00189764,0.00965748 0.00233071,0.00267717 0.00616142,0.00325984 0.00952756,0.00325984 0.00448425,0 0.0085748,-0.0010748 0.0120118,-0.00402362 0.00340157,-0.00291732 0.00510236,-0.00668504 0.00574803,-0.0110669 0.000484252,-0.00327559 0.000448819,-0.0070315 -0.0018622,-0.00964961 -0.00236614,-0.00268504 -0.00616535,-0.00326772 -0.00956299,-0.00326772 -0.00447638,0 -0.00859055,0.00109055 -0.0120354,0.00401575 -0.00340157,0.00288976 -0.00507874,0.00670079 -0.00572441,0.0110748zm0.135453 -0.00340157c-0.000366142,0.00248819 -0.000192913,0.00472047 0.00170866,0.00650394 0.00251969,0.00236614 0.00679134,0.00283858 0.0100748,0.00283858 0.00431496,0 0.00865748,-0.000807087 0.0121969,-0.00340945 0.00282283,-0.00207087 0.00435827,-0.00464961 0.00486614,-0.00811024 0.000370079,-0.00250787 0.000200787,-0.0048189 -0.00171654,-0.00661811 -0.00255512,-0.00239764 -0.00670472,-0.0028937 -0.0100394,-0.0028937 -0.00435433,0 -0.0085748,0.00088189 -0.0121457,0.00348425 -0.0028622,0.00208268 -0.0044252,0.00470472 -0.00494488,0.00820472z"/>
  <polygon class="fil1" points="0.169024,0.484815 0.187177,0.361972 0.234815,0.361972 0.221642,0.451126 0.296677,0.451126 0.291697,0.484815 "/>
  <path class="fil1" d="M0.341102 0.437173c-0.000964567,0.00652362 0.000251969,0.0117402 0.00364961,0.015626 0.00336614,0.00388583 0.00844094,0.00581496 0.0151339,0.00581496 0.00672047,0 0.0123346,-0.00192913 0.0168504,-0.00581496 0.00454331,-0.00388583 0.00729921,-0.00910236 0.00826378,-0.015626 0.000972441,-0.0065748 -0.00023622,-0.0118228 -0.00364173,-0.0156496 -0.00337008,-0.00385827 -0.00841732,-0.0057874 -0.0151378,-0.0057874 -0.00669291,0 -0.0123386,0.00192913 -0.0168504,0.0057874 -0.00453543,0.00382677 -0.00729528,0.0090748 -0.00826772,0.0156496zm-0.0449213 3.14961e-005c0.00238976,-0.0161654 0.0100787,-0.0286693 0.0230748,-0.0375748 0.0129961,-0.00887402 0.0301575,-0.0133268 0.0514803,-0.0133268 0.0213819,0 0.0372047,0.00442126 0.0474921,0.0132992 0.0102913,0.00884646 0.014252,0.0213819 0.0118583,0.0376024 -0.0023937,0.0161929 -0.0100551,0.0286969 -0.0229606,0.0375433 -0.0129094,0.00887795 -0.0300394,0.0132992 -0.0514213,0.0132992 -0.0213228,0 -0.0371732,-0.00442126 -0.0475472,-0.0132992 -0.010374,-0.00884646 -0.0143701,-0.0213504 -0.0119764,-0.0375433z"/>
  <path class="fil1" d="M0.476559 0.433772c-0.000799213,0.00541732 0.000515748,0.00975591 0.00397638,0.0130157 0.00346063,0.00323228 0.00852756,0.00485039 0.0151614,0.00485039 0.00666535,0 0.0121772,-0.00161811 0.0165984,-0.00485039 0.00442126,-0.00325984 0.00701969,-0.00759843 0.00782283,-0.0130157 0.000807087,-0.00547244 -0.000531496,-0.00986614 -0.00398819,-0.0131299 -0.00348819,-0.00325984 -0.00851969,-0.00490551 -0.0151299,-0.00490551 -0.00654724,0 -0.0120394,0.00164567 -0.0165157,0.00490551 -0.00448425,0.00326378 -0.00711811,0.00765748 -0.0079252,0.0131299zm0.0816693 0.0299449c-0.00122835,0.00831102 -0.00240551,0.0143504 -0.00350787,0.0181772 -0.00113386,0.00383071 -0.00255118,0.0068937 -0.00428346,0.00921654 -0.00655118,0.0088189 -0.0151299,0.0152559 -0.0257047,0.0192835 -0.0105512,0.00405512 -0.0241496,0.00607087 -0.0407677,0.00607087 -0.0191142,0 -0.0332835,-0.00255512 -0.0424882,-0.00762992 -0.00922441,-0.00510236 -0.0140669,-0.0130433 -0.0145118,-0.0238465l0.057 0c0.00034252,0.00209449 0.00133858,0.00359843 0.00292913,0.00453543 0.00162205,0.000937008 0.00396063,0.00141732 0.00707874,0.00141732 0.00635433,0 0.0111535,-0.00138976 0.014311,-0.00414173 0.00318898,-0.00277559 0.00525197,-0.00734252 0.00619291,-0.0136969 0.000204724,-0.00138583 0.000358268,-0.00243701 0.000429134,-0.00311811 7.48031e-005,-0.000681102 0.000114173,-0.00133071 0.000149606,-0.00195669 -0.0052874,0.00354331 -0.011122,0.0061811 -0.0175315,0.00791339 -0.00640945,0.00172835 -0.0135394,0.00257874 -0.0213937,0.00257874 -0.0155118,0 -0.0272638,-0.0041378 -0.0352559,-0.0124213 -0.00799213,-0.00827953 -0.0109843,-0.0193386 -0.00893701,-0.0331772 0.00203543,-0.0137795 0.00832283,-0.0248701 0.0188346,-0.0332362 0.0105079,-0.0083622 0.0235157,-0.0125315 0.0390276,-0.0125315 0.0081378,0 0.0152835,0.000964567 0.0214094,0.0028622 0.00615748,0.00190157 0.0114331,0.00479528 0.0158386,0.00873622l0.00167717 -0.00921654 0.0404646 0 -0.0109606 0.0741811z"/>
  <polygon class="fil1" points="0.570283,0.484815 0.584362,0.389528 0.627752,0.389528 0.613673,0.484815 "/>
  <path class="fil1" d="M0.625736 0.454358l0.0519331 -8.26772e-005c-0.000153543,0.00334646 0.000937008,0.00575591 0.00329921,0.00723228 0.0023622,0.00147244 0.0064252,0.00220866 0.0121811,0.00220866 0.0048189,0 0.00855512,-0.000535433 0.011185,-0.00161417 0.00262598,-0.00107874 0.00408661,-0.00272441 0.00440551,-0.00487795 0.000559055,-0.00377165 -0.00553937,-0.00626772 -0.0182717,-0.00742913 -0.00250787,-0.000283465 -0.00441339,-0.000452756 -0.00572835,-0.000566929 -0.000114173,0 -0.000228346,0 -0.000338583,0 -0.0205079,-0.00207087 -0.034185,-0.00470866 -0.0409921,-0.0079685 -0.004,-0.00190157 -0.00682677,-0.00485039 -0.00852362,-0.00890551 -0.00170079,-0.00402756 -0.00216142,-0.00879134 -0.00135433,-0.0142638 0.00162598,-0.0110039 0.00786614,-0.0190551 0.018685,-0.0241614 0.0108465,-0.0050748 0.0273031,-0.00762598 0.0493346,-0.00762598 0.0208425,0 0.0359685,0.0026063 0.0453543,0.00779528 0.00940945,0.00522047 0.0136378,0.0132717 0.0126772,0.024189l-0.0490039 0c0.000224409,-0.00323228 -0.000937008,-0.00555512 -0.00338583,-0.00700394 -0.00248425,-0.00144488 -0.00668504,-0.0021811 -0.0126102,-0.0021811 -0.00504724,0 -0.00881496,0.00053937 -0.0113268,0.00161417 -0.00251181,0.00107874 -0.00395669,0.00277953 -0.00429134,0.00505118 -0.00053937,0.00365748 0.00464961,0.00595276 0.0156102,0.00683071 0.00229134,0.000228346 0.00405118,0.000397638 0.00525197,0.000511811 0.000874016,5.51181e-005 0.00224803,0.000141732 0.00409449,0.000311024 0.0220197,0.00201575 0.0347992,0.00362992 0.0383268,0.00490551 0.00692913,0.00261024 0.0115866,0.00581496 0.0140354,0.00958661 0.00241732,0.00379921 0.00315354,0.00898819 0.00217717,0.0155945 -0.00179921,0.0121654 -0.00846063,0.0209843 -0.0199803,0.0264016 -0.0115197,0.00541732 -0.0294724,0.0081378 -0.0539173,0.0081378 -0.0216929,0 -0.0372323,-0.00269291 -0.0466142,-0.00811024 -0.00935039,-0.00541339 -0.0134252,-0.0139213 -0.0122126,-0.0255787z"/>
  <path class="fil1" d="M0.825969 0.484673c-0.00380709,0.000625984 -0.00747638,0.00107874 -0.0110079,0.00138976 -0.00353543,0.000311024 -0.00696063,0.000456693 -0.0102205,0.000456693 -0.00527559,0 -0.00996457,-0.000314961 -0.0140945,-0.000968504 -0.00410236,-0.000622047 -0.00772835,-0.00161417 -0.0108504,-0.00294488 -0.00444488,-0.00195669 -0.00734646,-0.00476772 -0.00872441,-0.00850787 -0.00140551,-0.00371654 -0.00147244,-0.00978346 -0.000224409,-0.0182362l0.0055 -0.0372323 -0.0151417 0 0.00394488 -0.0267126 0.0151457 0 0.00459843 -0.0311378 0.042878 0 -0.00460236 0.0311378 0.015315 0 -0.00394882 0.0267126 -0.015311 0 -0.00291732 0.0197362c-0.00138976,0.00941339 -0.00155118,0.0151142 -0.000456693,0.0170984 0.00109843,0.00198819 0.00372835,0.00298031 0.00789764,0.00298031l0.00609843 0 -0.00387795 0.0262283z"/>
  <polygon class="fil1" points="0.833063,0.484815 0.847142,0.389528 0.890531,0.389528 0.876453,0.484815 "/>
  <path class="fil1" d="M1.02739 0.442961c-0.00377559,0.015 -0.0119055,0.0262598 -0.0243937,0.0338031 -0.0124803,0.00751181 -0.0292559,0.0112835 -0.0502992,0.0112835 -0.021748,0 -0.0379094,-0.00442126 -0.0484803,-0.0132992 -0.0105748,-0.00884646 -0.0146535,-0.0213504 -0.0122638,-0.0375433 0.00238189,-0.0161063 0.0101575,-0.0286142 0.0233543,-0.0375197 0.0132008,-0.00892913 0.0306732,-0.0133819 0.0524252,-0.0133819 0.0202165,0 0.0354724,0.00345669 0.0457362,0.010378 0.0102638,0.00691732 0.0153819,0.017185 0.0153858,0.0307953l-0.0455984 0c-0.00108661,-0.00436614 -0.0031811,-0.00765748 -0.0062874,-0.00983858 -0.00311024,-0.00218504 -0.00723228,-0.00325984 -0.0123937,-0.00325984 -0.00757087,0 -0.0138228,0.00201181 -0.0187244,0.00600787 -0.00493307,0.00402756 -0.00790945,0.00958661 -0.00895276,0.0166496 -0.00101575,0.0068622 0.000275591,0.0123346 0.00390551,0.0163622 0.00359843,0.00405512 0.00897244,0.00606693 0.0161181,0.00606693 0.0059252,0 0.0111339,-0.00147244 0.0156535,-0.0044252 0.00452362,-0.00297638 0.00764173,-0.00700394 0.00938583,-0.0120787l0.0454291 0z"/>
  <path class="fil1" d="M1.12174 0.440465c-0.00475197,0.0022126 -0.0125669,0.00365748 -0.0234173,0.00436614 -0.00311811,0.000169291 -0.00552362,0.00034252 -0.00722047,0.000511811 -0.00632283,0.000566929 -0.0107126,0.00147638 -0.0131417,0.00275197 -0.00242913,0.00127559 -0.00385039,0.00323228 -0.00424409,0.00589764 -0.000440945,0.00297638 0.000547244,0.00530315 0.003,0.00694488 0.00245276,0.00161811 0.00613386,0.00244094 0.0110669,0.00244094 0.00935827,0 0.017122,-0.00187008 0.0232638,-0.00564173 0.00614567,-0.00377165 0.00968898,-0.00876378 0.0106024,-0.0149449 0.000102362,-0.000681102 0.000173228,-0.00116535 0.000188976,-0.00147638 1.5748e-005,-0.000283465 -2.3622e-005,-0.000594488 -9.84252e-005,-0.000850394zm-0.00445669 0.0313071c-0.00612992,0.00558661 -0.0131417,0.00966929 -0.0210354,0.012252 -0.00789764,0.00257874 -0.0175866,0.00385433 -0.0290984,0.00385433 -0.0155669,0 -0.0268661,-0.00261024 -0.0338976,-0.00779921 -0.00702756,-0.00521654 -0.00978346,-0.0130433 -0.00824016,-0.0235079 0.000507874,-0.00342913 0.00142913,-0.00657874 0.00273622,-0.0095 0.00130709,-0.00288976 0.00292913,-0.00541339 0.00485433,-0.00751181 0.00385827,-0.00402756 0.00866929,-0.00703543 0.0144016,-0.00899213 0.00573622,-0.00198425 0.016248,-0.00345669 0.0315118,-0.00445276 0.00503937,-0.000338583 0.0115512,-0.000649606 0.0195591,-0.000905512 0.0161772,-0.000681102 0.0245354,-0.00292126 0.0250984,-0.00674803 0.000385827,-0.00261024 -0.00100394,-0.00470866 -0.00414567,-0.00629528 -0.0031378,-0.00159055 -0.00761417,-0.00238189 -0.0134291,-0.00238189 -0.00754331,0 -0.0130079,0.000708661 -0.0164528,0.00215354 -0.00341732,0.00144488 -0.00564961,0.00388583 -0.00673228,0.00737402l-0.0438976 0c0.00258268,-0.0115433 0.00922441,-0.0198228 0.0199134,-0.024815 0.0106693,-0.00501969 0.0274291,-0.00751181 0.0502283,-0.00751181 0.0124488,0 0.022811,0.000877953 0.0310906,0.0026063 0.00827559,0.00175984 0.0143307,0.00433858 0.0181929,0.00777165 0.0042126,0.0037126 0.0069252,0.00819291 0.00816929,0.0134134 0.00120866,0.00524409 0.00109449,0.0127323 -0.00034252,0.0224567l-0.00543307 0.0367795c-0.000523622,0.00354724 -0.00061811,0.00629528 -0.000248031,0.00819685 0.000346457,0.00190157 0.00122441,0.00343307 0.00262205,0.00453543l-0.000307087 0.00207087 -0.0442953 0c-0.000515748,-0.00187008 -0.000838583,-0.00391339 -0.000972441,-0.00609449 -0.000153543,-0.0022126 -9.84252e-005,-0.00451181 0.000149606,-0.00694882z"/>
  <path class="fil2" d="M0.565461 0.346752c-0.0148346,-1.1811e-005 -0.0411417,0.00477559 -0.0472283,-0.0135472 -0.00298425,-0.00897638 0.00439764,-0.036626 0.00654331,-0.0468819 0.00594094,-0.0284173 0.0115709,-0.0568937 0.0174724,-0.085315 0.00233071,-0.0112126 0.00448425,-0.0224449 0.0066063,-0.0336929 0.00149606,-0.00795276 0.00295276,-0.0159606 0.00474803,-0.0238504 0.00216142,-0.0095 0.00509055,-0.0211732 0.0132205,-0.0274016 0.00570472,-0.00437008 0.0129488,-0.00551181 0.0199252,-0.00598425 0.00451969,-0.000307087 0.00909055,-0.000338583 0.013622,-0.000346457 0.00582283,-3.93701e-006 0.0116496,5.51181e-005 0.0174764,5.51181e-005l0.15476 0c0.00408661,0 0.00820866,-0.00019685 0.0122953,-0.000311024 0.00545276,-0.00015748 0.0109094,-0.000251969 0.0163661,-0.000122047 0.0119252,0.000275591 0.035937,0.00135039 0.0389803,0.0163386 0.000515748,0.00253543 -0.000161417,0.00686614 -0.000527559,0.00945276 -0.000720472,0.00509449 -0.00162205,0.010189 -0.00253937,0.0152559 -0.00259843,0.0142913 -0.00548425,0.0285591 -0.00840551,0.0427874 -0.00279134,0.0135866 -0.00564567,0.0271614 -0.00852756,0.0407283 -0.00164567,0.00773622 -0.00334252,0.0154685 -0.00493307,0.0232126 -0.00295669,0.0143622 -0.00590945,0.0287244 -0.00873622,0.0431142 -0.0013189,0.00669291 -0.00243307,0.013437 -0.00372047,0.0201417 -0.000814961,0.00424016 -0.00167323,0.00848425 -0.00267717,0.012685 -0.000787402,0.00329921 -0.00169685,0.00690945 -0.00300787,0.0100394l-0.00153543 0.00366142 -0.136094 -0.000444882 -0.00270079 -0.000122047c-0.000271654,-1.1811e-005 -6.29921e-005,0.000543307 -9.84252e-005,0.000811024 -0.00104331,0.00794882 -0.00451575,0.0153228 -0.0106811,0.0213701 -0.00703543,0.00689764 -0.0165787,0.0109764 -0.0263189,0.0120394 -0.0216299,0.00236614 -0.0412205,-0.00963386 -0.0450984,-0.0317047l-0.000370079 -0.00209843 -0.00406693 0.000133858 -0.00474803 -3.93701e-006zm0.358181 -0.000354331l-0.00609843 0c-0.000212598,0.00177953 -0.00053937,0.00354724 -0.000980315,0.0052874 -0.00398425,0.0156654 -0.0161969,0.0256339 -0.0318425,0.0285512 -0.0144646,0.00270079 -0.0287244,-0.000877953 -0.0387441,-0.012 -0.00548031,-0.00607874 -0.00900394,-0.0137835 -0.0102323,-0.0218386l-0.00422441 0 -7.48031e-005 0.000326772 -0.0279646 3.54331e-005 -0.000129921 -0.00582677c-4.33071e-005,-0.00201969 0.00042126,-0.0046063 0.00073622,-0.00661024 0.000570866,-0.0036063 0.00122047,-0.00720472 0.00188189,-0.0107953 0.00183071,-0.00996457 0.00379921,-0.0199094 0.00577953,-0.0298465 0.00294488,-0.0147598 0.00605118,-0.0295 0.00894882,-0.0442638 0.00296457,-0.0150984 0.00626378,-0.0301339 0.00911811,-0.045252 0.00122835,-0.00652756 0.00205118,-0.0132205 0.00345276,-0.019689 0.00115748,-0.0053189 0.00287795,-0.0107756 0.00701969,-0.014563 0.00408268,-0.00372835 0.00934252,-0.00481102 0.0147165,-0.00481102l0.055437 0c0.00601575,0 0.0120276,0.000913386 0.0166063,0.00516142 0.00367717,0.00340945 0.00556299,0.0082126 0.00744882,0.0127441l0.000114173 0.000275591 0.0200118 0.0660866c0.00272047,0.00660236 0.00569291,0.013 0.00867323,0.0194843 0.00216535,0.0047126 0.00429921,0.00949213 0.00556299,0.0145394 0.00150787,0.00602756 0.00161024,0.0118858 0.00107087,0.0180433 -0.000799213,0.00916535 -0.00279528,0.0186457 -0.0047126,0.0276378 -0.00120472,0.00565748 -0.00343307,0.0111063 -0.00841732,0.0144449 -0.00410236,0.00274803 -0.00899606,0.00333071 -0.013811,0.00340945 -0.00556693,9.05512e-005 -0.0112441,-0.000358268 -0.0168268,-0.000480315l-0.00251969 -5.11811e-005zm0.00514961 -0.103248c-0.000795276,-0.00281102 -0.00166929,-0.00560236 -0.00258268,-0.00837008 -0.00169291,-0.00516142 -0.00352362,-0.0104252 -0.00558268,-0.0154488 -0.00225984,-0.00550787 -0.00413386,-0.0111417 -0.00637008,-0.016626 -0.000728346,-0.00179134 -0.0021063,-0.00512205 -0.00374409,-0.00629528 -0.00100394,-0.000712598 -0.0024685,-0.000870079 -0.00365354,-0.000913386 -0.00743307,-0.000259843 -0.0148701,-0.000531496 -0.0223031,-0.000685039 -0.00467717,-9.44882e-005 -0.00943701,-0.000173228 -0.0141102,6.29921e-005 -0.00103543,5.11811e-005 -0.00741732,0.000492126 -0.00811417,0.00144094 -0.000346457,0.000468504 -0.00061811,0.00228346 -0.000700787,0.00284252 -0.000429134,0.00294882 -0.000700787,0.00586614 -0.00122441,0.00881496 -0.00046063,0.00259843 -0.00280315,0.0115787 -0.00246457,0.0146299 0.00236614,0.00172441 0.0128858,0.00383858 0.0156693,0.0045748 0.00725591,0.0019252 0.0144213,0.00418504 0.0217047,0.00601181 0.00693701,0.00174409 0.0138898,0.00419685 0.0207323,0.00633465 0.00387795,0.00120866 0.00778346,0.00238976 0.0117283,0.00337402 0.000334646,8.26772e-005 0.000673228,0.000165354 0.00101575,0.000251969z"/>
  <path class="fil3" d="M0.565465 0.340803c0.00430315,-0.0189094 0.00311417,-0.0214449 0.0149134,-0.0335079 0.0253701,-0.0259449 0.0795433,-0.0185945 0.084563,0.0330984l0.126744 0.000417323c0.00337008,-0.00804331 0.00708268,-0.0316693 0.00905512,-0.0417165 0.00287402,-0.0146102 0.00575984,-0.0286496 0.00874803,-0.0431614 0.00246457,-0.0119921 0.0264055,-0.121787 0.0249291,-0.129055 -0.00308661,-0.0152047 -0.0465512,-0.0111417 -0.061811,-0.0111417l-0.15476 0c-0.0621693,0 -0.0507283,-0.00519291 -0.0697717,0.0864803 -0.00599213,0.0288425 -0.0114961,0.0567126 -0.0174764,0.0853228 -0.00181102,0.00866142 -0.009,0.0369331 -0.00672047,0.0437874 0.00449213,0.0135276 0.0270827,0.00946457 0.0415866,0.00947638zm0.042874 -0.0336142c-0.0170276,0.00338583 -0.0321024,0.0192953 -0.0278622,0.0403543 0.00878346,0.043622 0.0787677,0.0316417 0.0698937,-0.0134606 -0.00330709,-0.0167953 -0.0212441,-0.0310236 -0.0420315,-0.0268937zm0.261429 1.9685e-005c-0.0464055,0.00926772 -0.0323031,0.0757953 0.0138622,0.0671811 0.0453465,-0.00846457 0.032752,-0.0764961 -0.0138622,-0.0671811zm-0.0604685 0.0335945l0.0173976 -2.3622e-005c0.00415748,-0.0182717 0.00338976,-0.0223465 0.0149055,-0.0336772 0.0194134,-0.0191063 0.0493622,-0.0188858 0.0695039,-0.00111024 0.00840551,0.00742126 0.0129449,0.0190079 0.015185,0.0345118 0.0203976,0.000440945 0.0296929,0.00335039 0.0331063,-0.0126693 0.00970079,-0.0455118 0.0042874,-0.0407244 -0.0103858,-0.0764685l-0.0200079 -0.0660709c-0.00393307,-0.00944882 -0.00587402,-0.0142441 -0.018563,-0.0142441l-0.055437 0c-0.0162756,7.87402e-006 -0.0150787,0.0115906 -0.0193465,0.0342165 -0.00285039,0.0151102 -0.00609055,0.0298307 -0.00912205,0.0452953 -0.0024685,0.0125551 -0.017374,0.0840472 -0.0172362,0.0902402zm0.0432835 -0.115319c0.0026378,0.00421654 0.0115433,0.00533071 0.0195,0.00744488 0.00753937,0.002 0.0142323,0.00413386 0.0217835,0.0060315 0.0113031,0.00283858 0.0316693,0.0108268 0.0426575,0.0115236 -0.000724409,-0.00691339 -0.00726772,-0.0257874 -0.0103937,-0.0334134 -0.00770079,-0.0187598 -0.00785433,-0.027126 -0.0190669,-0.0275197 -0.0568819,-0.00199213 -0.0491811,-0.00137795 -0.0525118,0.017378 -0.000885827,0.00496063 -0.00381496,0.014437 -0.0019685,0.0185551z"/>
  <path class="fil4" d="M0.608339 0.307189c-0.0170315,0.00338583 -0.0321024,0.0192953 -0.0278622,0.0403543 0.00878346,0.043622 0.0787677,0.0316417 0.0698937,-0.0134606 -0.00330709,-0.0167953 -0.0212441,-0.0310236 -0.0420315,-0.0268937z"/>
  <path class="fil2" d="M0.691374 0.216157c-0.0160433,-0.00034252 -0.027937,-0.014252 -0.0224764,-0.0317362 0.00446063,-0.0142835 0.0210472,-0.0270236 0.0380709,-0.0210197 0.0130039,0.00458268 0.0206654,0.0200787 0.0109488,0.0373228 -0.0037874,0.00672047 -0.00927165,0.0127835 -0.0137795,0.0181024 -0.00261417,0.00308661 -0.0121732,0.0133937 -0.015122,0.0156417l0.00235827 -0.018311zm-0.0070748 0.052378c0.00444882,-0.00312205 0.0245787,-0.0242795 0.0296339,-0.0299882 0.00796063,-0.00899606 0.0185472,-0.0227008 0.0240984,-0.0353228 0.0141575,-0.032189 -0.0066378,-0.0610315 -0.0367047,-0.0611142 -0.0303976,-8.66142e-005 -0.0584685,0.0282717 -0.053,0.060626 0.00489764,0.0289921 0.0209567,0.0464055 0.0359724,0.0657992z"/>
  <g style="clip-path:url(#id0)">
   <g id="_257708520">
    <path id="_2577082081" class="fil5" style="mask:url(#id1)" d="M0.689803 0.152689c-0.0188346,0 -0.0391457,0.0156102 -0.041937,0.0372559l0.0197441 0c0.00259449,-0.0149291 0.0162323,-0.0268228 0.031063,-0.0268228 0.0126102,0 0.0221378,0.00859449 0.023937,0.0203425 -0.00180315,-0.0176732 -0.0139724,-0.0307756 -0.0328071,-0.0307756z"/>
    <path id="_257708544" class="fil5" style="mask:url(#id3)" d="M0.684685 0.268248c0.00511417,-0.00394094 0.0243268,-0.0241417 0.029248,-0.0297008 0.00796063,-0.00899606 0.0185472,-0.0227008 0.0240984,-0.0353228 0.000625984,-0.0014252 0.0011811,-0.00284252 0.00167323,-0.00425197l-0.0208583 0c-0.000291339,0.000582677 -0.000598425,0.00116535 -0.000929134,0.00175197 -0.0037874,0.00672047 -0.00927165,0.0127835 -0.0137795,0.0181024 -0.0026063,0.0030748 -0.0121142,0.0133268 -0.0150906,0.0156181l-0.0043622 0.0338031z"/>
   </g>
  </g>
  <path class="fil6" d="M0.691374 0.216157c-0.0160433,-0.00034252 -0.027937,-0.014252 -0.0224764,-0.0317362 0.00446063,-0.0142835 0.0210472,-0.0270236 0.0380709,-0.0210197 0.0130039,0.00458268 0.0206654,0.0200787 0.0109488,0.0373228 -0.0037874,0.00672047 -0.00927165,0.0127835 -0.0137795,0.0181024 -0.00261417,0.00308661 -0.0121732,0.0133937 -0.015122,0.0156417l0.00235827 -0.018311zm-0.0070748 0.052378c0.00444882,-0.00312205 0.0245787,-0.0242795 0.0296339,-0.0299882 0.00796063,-0.00899606 0.0185472,-0.0227008 0.0240984,-0.0353228 0.0141575,-0.032189 -0.0066378,-0.0610315 -0.0367047,-0.0611142 -0.0303976,-8.66142e-005 -0.0584685,0.0282717 -0.053,0.060626 0.00489764,0.0289921 0.0209567,0.0464055 0.0359724,0.0657992z"/>
  <path class="fil4" d="M0.869268 0.306382c-0.0174409,0.00346457 -0.032878,0.0197598 -0.0285354,0.0413307 0.00899606,0.0446772 0.0806732,0.0324055 0.0715827,-0.0137874 -0.00338583,-0.0172047 -0.0217559,-0.0317756 -0.0430472,-0.0275433z"/>
  <polygon class="fil4" points="0.246291,0.131783 0.556098,0.131783 0.550717,0.15674 0.240909,0.15674 "/>
  <polygon class="fil4" points="0.283311,0.171031 0.547677,0.171031 0.542291,0.195984 0.277929,0.195984 "/>
  <polygon class="fil4" points="0.329787,0.209248 0.538382,0.209248 0.532996,0.234201 0.324406,0.234201 "/>
  <polygon class="fil7" points="0.374331,0.253142 0.531795,0.253142 0.527047,0.278264 0.368945,0.278094 "/>
  <polygon class="fil7" points="0.419646,0.29239 0.524437,0.29239 0.519055,0.317343 0.41426,0.317343 "/>
  <path class="fil8" d="M0.717776 0.55352c0.000779528,0.000114173 0.00176378,0.000208661 0.00295669,0.000295276 0.00118504,8.66142e-005 0.0025748,0.000129921 0.00415748,0.000137795 0.00197638,0 0.00372835,-0.000122047 0.00524016,-0.000354331 0.00151181,-0.00023622 0.0028189,-0.000594488 0.00391732,-0.00105512 0.0011063,-0.000464567 0.00203543,-0.00103543 0.00277953,-0.0017126 0.000649606,-0.000586614 0.00120866,-0.00124016 0.00165748,-0.0019685 0.000444882,-0.000732283 0.000795276,-0.00151181 0.00102362,-0.00234252 0.000240157,-0.000826772 0.000354331,-0.00167323 0.000354331,-0.00254724 -1.1811e-005,-0.0014252 -0.000295276,-0.00268504 -0.000858268,-0.00379921 -0.000559055,-0.0011063 -0.00132283,-0.00202362 -0.00229921,-0.00276772 -0.000976378,-0.000740157 -0.00209055,-0.00126772 -0.00335039,-0.00159055l0 -0.000177165c0.00118504,-0.000452756 0.00217717,-0.00105512 0.00296457,-0.00179134 0.000787402,-0.000740157 0.00138189,-0.00157087 0.00177953,-0.00249606 0.000397638,-0.000917323 0.000594488,-0.0018937 0.000594488,-0.00291339 -7.87402e-006,-0.00137402 -0.00030315,-0.00259843 -0.000874016,-0.00366929 -0.00057874,-0.00107087 -0.00137008,-0.00194488 -0.00238189,-0.00262598 -0.000759843,-0.000535433 -0.00159843,-0.000952756 -0.00250787,-0.00126378 -0.000913386,-0.000311024 -0.00191732,-0.000535433 -0.00302362,-0.000665354 -0.00110236,-0.000137795 -0.00232283,-0.000204724 -0.00366929,-0.00019685 -0.00109055,0 -0.00216142,3.14961e-005 -0.00321654,9.44882e-005 -0.00105118,5.90551e-005 -0.00202756,0.000145669 -0.0029252,0.000248031 -0.000901575,9.84252e-005 -0.00167717,0.000220472 -0.0023189,0.000354331l0 0.0328071zm0.00637795 -0.0285118c0.000275591,-6.69291e-005 0.000645669,-0.000122047 0.00109843,-0.000161417 0.000456693,-3.54331e-005 0.00103543,-5.51181e-005 0.00172441,-5.51181e-005 0.000720472,-7.87402e-006 0.00140157,7.08661e-005 0.00203937,0.000216535 0.000641732,0.000149606 0.00120472,0.000397638 0.00170472,0.00073622 0.000492126,0.00034252 0.000877953,0.000787402 0.00116535,0.00135433 0.000283465,0.000562992 0.00042126,0.00125197 0.000425197,0.0020748 0,0.000917323 -0.00023622,0.00172835 -0.000692913,0.00242913 -0.000464567,0.000704724 -0.00112992,0.00125197 -0.00198819,0.00164961 -0.000870079,0.000397638 -0.00190945,0.000602362 -0.00313386,0.000610236l-0.00234252 0 0 -0.00885433zm0.00238583 0.0135394c0.000834646,-7.87402e-006 0.00164173,8.66142e-005 0.0024252,0.000275591 0.000779528,0.000188976 0.00148031,0.000492126 0.00211024,0.000901575 0.000629921,0.000413386 0.00112992,0.000948819 0.0015,0.00162205 0.000366142,0.000673228 0.000555118,0.00148819 0.000562992,0.00245276 -7.87402e-006,0.000940945 -0.000173228,0.00174803 -0.000515748,0.00242913 -0.000338583,0.000673228 -0.000799213,0.00122441 -0.0013937,0.00165748 -0.000594488,0.000425197 -0.00127165,0.000744094 -0.00204724,0.000944882 -0.000767717,0.000204724 -0.00159055,0.000307087 -0.0024685,0.000307087 -0.000555118,0 -0.00104724,-1.5748e-005 -0.00146063,-3.93701e-005 -0.000409449,-2.75591e-005 -0.000779528,-7.08661e-005 -0.00109843,-0.000133858l0 -0.0104173 0.00238583 0z"/>
  <path id="1" class="fil8" d="M0.754618 0.528957c-0.00164961,0 -0.00316929,0.000283465 -0.00455906,0.000846457 -0.00138583,0.000555118 -0.00259449,0.00138189 -0.00362992,0.00246457 -0.00102756,0.00108661 -0.00183071,0.00241732 -0.00240157,0.00399213 -0.000570866,0.00157874 -0.000858268,0.00337795 -0.000866142,0.00541339 7.87402e-006,0.00196457 0.000287402,0.00371654 0.000830709,0.00525591 0.000551181,0.00154331 0.00132283,0.00284252 0.00233071,0.00391339 0.000996063,0.00107087 0.00217717,0.00188976 0.00353543,0.00244488 0.00136614,0.000559055 0.00286614,0.000830709 0.0045,0.000838583 0.00108268,0 0.00216142,-0.000141732 0.00324016,-0.000440945 0.00107874,-0.00030315 0.00209843,-0.000767717 0.00305906,-0.00140157 0.00096063,-0.000629921 0.00181496,-0.00144882 0.00255906,-0.00245276 0.000751969,-0.001 0.00133858,-0.00220079 0.00176772,-0.00360236 0.000433071,-0.00140157 0.000649606,-0.00302362 0.00065748,-0.0048622 -7.87402e-006,-0.00184252 -0.000259843,-0.00351969 -0.000767717,-0.0050315 -0.000511811,-0.00151181 -0.00124409,-0.00282283 -0.00220472,-0.00392126 -0.000964567,-0.00109843 -0.00212205,-0.00195276 -0.00347244,-0.00255118 -0.00135433,-0.000594488 -0.00287795,-0.000897638 -0.00457874,-0.000905512zm0.00451181 0.0125433c0,0.00108268 -9.84252e-005,0.00209449 -0.00030315,0.00304331 -0.000200787,0.000948819 -0.000503937,0.0017874 -0.000897638,0.00251575 -0.000397638,0.000724409 -0.000889764,0.00129528 -0.0014685,0.00170866 -0.000582677,0.000413386 -0.00125591,0.000622047 -0.00201575,0.000629921 -0.000783465,-7.87402e-006 -0.0014685,-0.000216535 -0.00206299,-0.000622047 -0.000598425,-0.000413386 -0.00109055,-0.000976378 -0.00149606,-0.00169291 -0.000405512,-0.000724409 -0.000700787,-0.00155512 -0.000913386,-0.00250394 -0.000200787,-0.000940945 -0.00030315,-0.00196063 -0.00030315,-0.00303543 0,-0.000748031 5.11811e-005,-0.00149213 0.000161417,-0.00223622 0.000106299,-0.000744094 0.000271654,-0.00145276 0.000511811,-0.00212598 0.000232283,-0.000673228 0.000535433,-0.00126772 0.000913386,-0.00179528 0.000374016,-0.000519685 0.000830709,-0.000933071 0.00136614,-0.00123622 0.000535433,-0.00030315 0.00115748,-0.000456693 0.00186614,-0.000464567 0.000822835,7.87402e-006 0.00152362,0.000240157 0.00211811,0.000688976 0.000586614,0.000448819 0.00107087,0.00104724 0.00144094,0.00179921 0.000374016,0.000751969 0.000649606,0.00159449 0.000822835,0.00251181 0.000173228,0.000917323 0.000259843,0.00185827 0.000259843,0.00281496z"/>
  <path id="12" class="fil8" d="M0.780354 0.528957c-0.00164961,0 -0.00316929,0.000283465 -0.00455906,0.000846457 -0.00138583,0.000555118 -0.00259449,0.00138189 -0.00362992,0.00246457 -0.00102756,0.00108661 -0.00183071,0.00241732 -0.00240157,0.00399213 -0.000570866,0.00157874 -0.000858268,0.00337795 -0.000866142,0.00541339 7.87402e-006,0.00196457 0.000287402,0.00371654 0.000830709,0.00525591 0.000551181,0.00154331 0.00132283,0.00284252 0.00233071,0.00391339 0.000996063,0.00107087 0.00217717,0.00188976 0.00353543,0.00244488 0.00136614,0.000559055 0.00286614,0.000830709 0.0045,0.000838583 0.00108268,0 0.00216142,-0.000141732 0.00324016,-0.000440945 0.00107874,-0.00030315 0.00209843,-0.000767717 0.00305906,-0.00140157 0.00096063,-0.000629921 0.00181496,-0.00144882 0.00255906,-0.00245276 0.000751969,-0.001 0.00133858,-0.00220079 0.00176772,-0.00360236 0.000433071,-0.00140157 0.000649606,-0.00302362 0.00065748,-0.0048622 -7.87402e-006,-0.00184252 -0.000259843,-0.00351969 -0.000767717,-0.0050315 -0.000511811,-0.00151181 -0.00124409,-0.00282283 -0.00220472,-0.00392126 -0.000964567,-0.00109843 -0.00212205,-0.00195276 -0.00347244,-0.00255118 -0.00135433,-0.000594488 -0.00287795,-0.000897638 -0.00457874,-0.000905512zm0.00451181 0.0125433c0,0.00108268 -9.84252e-005,0.00209449 -0.00030315,0.00304331 -0.000200787,0.000948819 -0.000503937,0.0017874 -0.000897638,0.00251575 -0.000397638,0.000724409 -0.000889764,0.00129528 -0.0014685,0.00170866 -0.000582677,0.000413386 -0.00125591,0.000622047 -0.00201575,0.000629921 -0.000783465,-7.87402e-006 -0.0014685,-0.000216535 -0.00206299,-0.000622047 -0.000598425,-0.000413386 -0.00109055,-0.000976378 -0.00149606,-0.00169291 -0.000405512,-0.000724409 -0.000700787,-0.00155512 -0.000913386,-0.00250394 -0.000200787,-0.000940945 -0.00030315,-0.00196063 -0.00030315,-0.00303543 0,-0.000748031 5.11811e-005,-0.00149213 0.000161417,-0.00223622 0.000106299,-0.000744094 0.000271654,-0.00145276 0.000511811,-0.00212598 0.000232283,-0.000673228 0.000535433,-0.00126772 0.000913386,-0.00179528 0.000374016,-0.000519685 0.000830709,-0.000933071 0.00136614,-0.00123622 0.000535433,-0.00030315 0.00115748,-0.000456693 0.00186614,-0.000464567 0.000822835,7.87402e-006 0.00152362,0.000240157 0.00211811,0.000688976 0.000586614,0.000448819 0.00107087,0.00104724 0.00144094,0.00179921 0.000374016,0.000751969 0.000649606,0.00159449 0.000822835,0.00251181 0.000173228,0.000917323 0.000259843,0.00185827 0.000259843,0.00281496z"/>
  <path id="123" class="fil8" d="M0.816461 0.529476l-0.00746457 0 -0.00481496 0.00755118c-0.000283465,0.000456693 -0.000559055,0.000933071 -0.000818898,0.00143307 -0.000267717,0.0005 -0.000527559,0.00101969 -0.000787402,0.00156299l-0.000129921 0 0 -0.0212638 -0.00642126 0 0 0.0348898 0.00642126 0 0 -0.00802756 0.00169291 -0.00229921 0.00564173 0.0103268 0.0076378 0 -0.00885433 -0.0142362 0.00789764 -0.00993701z"/>
  <polygon id="1234" class="fil8" points="0.844283,0.56602 0.844283,0.5165 0.839638,0.5165 0.839638,0.56602 "/>
  <polygon id="12345" class="fil8" points="0.867543,0.520276 0.867543,0.525831 0.875748,0.525831 0.875748,0.55365 0.882169,0.55365 0.882169,0.525831 0.890413,0.525831 0.890413,0.520276 "/>
  <path id="123456" class="fil8" d="M0.899445 0.533685l-0.00026378 -0.00420866 -0.00551181 0c4.33071e-005,0.00107874 8.66142e-005,0.00223622 0.000125984,0.00346457 2.75591e-005,0.00123622 5.11811e-005,0.00259843 5.11811e-005,0.00408661l0 0.016622 0.00642126 0 0 -0.0125c7.87402e-006,-0.00137402 0.000240157,-0.00250787 0.000681102,-0.00340551 0.000448819,-0.000897638 0.00105512,-0.00157087 0.00182283,-0.00201181 0.00076378,-0.000440945 0.00164173,-0.00065748 0.00261811,-0.00065748 0.000322835,0 0.000622047,7.87402e-006 0.000889764,3.14961e-005 0.000267717,1.9685e-005 0.000519685,5.51181e-005 0.000759843,9.84252e-005l0 -0.00611811c-0.000212598,-4.33071e-005 -0.000429134,-7.87402e-005 -0.000653543,-0.000102362 -0.000224409,-1.9685e-005 -0.000484252,-2.75591e-005 -0.000779528,-2.75591e-005 -0.000767717,0 -0.00153543,0.000181102 -0.00230709,0.000535433 -0.000775591,0.000346457 -0.00148425,0.000874016 -0.00212598,0.0015748 -0.000653543,0.000704724 -0.00116535,0.00157874 -0.00155512,0.00261811l-0.000173228 0z"/>
  <path id="1234567" class="fil8" d="M0.911941 0.535205c0.000795276,-0.000484252 0.00170079,-0.00088189 0.00272835,-0.00118504 0.00102756,-0.000295276 0.00209843,-0.000456693 0.00321654,-0.000464567 0.00115748,7.87402e-006 0.00205512,0.00019685 0.00269291,0.000559055 0.000629921,0.000370079 0.00106299,0.000866142 0.00130709,0.00149606 0.000240157,0.000637795 0.000354331,0.00135433 0.00034252,0.00215748 -0.00193307,0 -0.00369685,0.000181102 -0.00530315,0.000547244 -0.0016063,0.000370079 -0.00299606,0.000925197 -0.00417323,0.00167717 -0.00117717,0.000751969 -0.00209055,0.00170079 -0.00273228,0.00284252 -0.000653543,0.00114567 -0.000976378,0.00249606 -0.000984252,0.00404331 0,0.000984252 0.000173228,0.00190945 0.000503937,0.00277953 0.000334646,0.000874016 0.000811024,0.00164173 0.00144094,0.00230709 0.000629921,0.000673228 0.00138976,0.00120079 0.00228346,0.0015748 0.000889764,0.000385827 0.00189764,0.00057874 0.00301969,0.000586614 0.000901575,0 0.00174803,-0.000122047 0.00255118,-0.000354331 0.00080315,-0.000232283 0.00152756,-0.000570866 0.00218504,-0.00101181 0.00065748,-0.000448819 0.00122047,-0.000992126 0.00168504,-0.00162598l0.000129921 0 0.000389764 0.00251575 0.00577165 0c-8.66142e-005,-0.0005 -0.000149606,-0.00105512 -0.000200787,-0.00166929 -5.11811e-005,-0.00061811 -8.66142e-005,-0.00126772 -0.00011811,-0.00195276 -1.9685e-005,-0.00069685 -2.75591e-005,-0.00139764 -2.75591e-005,-0.0021063l0 -0.00885433c7.87402e-006,-0.00133858 -0.000137795,-0.00260236 -0.000433071,-0.00380315 -0.00030315,-0.00120866 -0.000811024,-0.00227953 -0.00152756,-0.00322047 -0.000716535,-0.000933071 -0.00169291,-0.00167717 -0.00292913,-0.0022126 -0.00123622,-0.000543307 -0.00279134,-0.000822835 -0.00465748,-0.000830709 -0.00125984,7.87402e-006 -0.00242126,0.000114173 -0.00349213,0.000318898 -0.00106299,0.000200787 -0.00201181,0.000456693 -0.00283465,0.000767717 -0.000826772,0.000311024 -0.00150787,0.000625984 -0.00204724,0.000952756l0.0012126 0.00416535zm0.0104606 0.0101575c-7.87402e-006,0.00076378 -0.000145669,0.00141732 -0.00042126,0.00195276 -0.000267717,0.000527559 -0.000606299,0.00096063 -0.00102756,0.0012874 -0.000417323,0.000322835 -0.000858268,0.000562992 -0.00131496,0.000708661 -0.000464567,0.000141732 -0.00088189,0.000216535 -0.00127165,0.000216535 -0.000543307,0 -0.00104331,-0.00011811 -0.00150394,-0.000346457 -0.000456693,-0.000224409 -0.000826772,-0.000586614 -0.00110236,-0.00107087 -0.000279528,-0.000492126 -0.000425197,-0.00111417 -0.000433071,-0.00188189 7.87402e-006,-0.000874016 0.000216535,-0.00159055 0.000614173,-0.00216142 0.000405512,-0.000566929 0.000940945,-0.00100787 0.00162205,-0.00132283 0.000677165,-0.000318898 0.00142913,-0.000543307 0.00227165,-0.000673228 0.000830709,-0.000125984 0.00168898,-0.000188976 0.00256693,-0.000181102l0 0.00347244z"/>
  <path id="12345678" class="fil8" d="M0.950783 0.529909c-0.000354331,-0.000141732 -0.000787402,-0.000287402 -0.00129921,-0.000425197 -0.000523622,-0.000137795 -0.00110236,-0.000251969 -0.00173622,-0.000346457 -0.000629921,-8.66142e-005 -0.00129528,-0.000137795 -0.00199606,-0.000137795 -0.00200394,7.87402e-006 -0.00378346,0.000338583 -0.00535433,0.000984252 -0.00156299,0.000641732 -0.00288583,0.00153937 -0.00397638,0.00269685 -0.00108661,0.00115748 -0.00191732,0.00251181 -0.00248425,0.00406693 -0.000570866,0.00154724 -0.000850394,0.00323228 -0.000858268,0.00505512 7.87402e-006,0.00192126 0.000283465,0.00364567 0.000830709,0.00515748 0.000543307,0.00151575 0.00133071,0.00280315 0.00235039,0.0038622 0.00102756,0.00106299 0.00225197,0.00186614 0.0036811,0.00242126 0.00143307,0.000559055 0.00303937,0.000830709 0.00481102,0.000838583 0.000862205,-7.87402e-006 0.00166535,-5.51181e-005 0.00241732,-0.000149606 0.000751969,-0.000102362 0.0014252,-0.000232283 0.00200787,-0.000393701 0.000586614,-0.000149606 0.00106299,-0.000322835 0.00143307,-0.000496063l-0.000692913 -0.0048189c-0.000523622,0.000240157 -0.00109843,0.000433071 -0.00174409,0.000570866 -0.000641732,0.000137795 -0.00135827,0.000212598 -0.00216142,0.000212598 -0.00124409,-7.87402e-006 -0.00234646,-0.000299213 -0.00330709,-0.000885827 -0.00096063,-0.000582677 -0.00172047,-0.00142913 -0.00227165,-0.00254331 -0.000555118,-0.0011063 -0.000838583,-0.00245276 -0.000846457,-0.00403543 0,-0.00107087 0.000145669,-0.00206299 0.000429134,-0.0029685 0.000287402,-0.000909449 0.000700787,-0.00170472 0.00125197,-0.00238583 0.00053937,-0.000673228 0.0012126,-0.00120079 0.002,-0.00158268 0.000791339,-0.000377953 0.00168504,-0.000566929 0.00270079,-0.000570866 0.00088189,3.93701e-006 0.00163386,8.66142e-005 0.00224016,0.000244094 0.000614173,0.000153543 0.00112992,0.000334646 0.00153543,0.000535433l0.00103937 -0.00490551z"/>
  <path id="123456789" class="fil8" d="M0.975173 0.529476l-0.00746457 0 -0.00481496 0.00755118c-0.000283465,0.000456693 -0.000559055,0.000933071 -0.000818898,0.00143307 -0.000267717,0.0005 -0.000527559,0.00101969 -0.000787402,0.00156299l-0.000129921 0 0 -0.0212638 -0.00642126 0 0 0.0348898 0.00642126 0 0 -0.00802756 0.00169291 -0.00229921 0.00564173 0.0103268 0.0076378 0 -0.00885433 -0.0142362 0.00789764 -0.00993701z"/>
  <polygon id="12345678910" class="fil8" points="1.003,0.56602 1.003,0.5165 0.99835,0.5165 0.99835,0.56602 "/>
  <path id="1234567891011" class="fil8" d="M1.02895 0.55365l0.00637795 0 0 -0.0135394 0.00216929 0c0.00100787,-7.87402e-006 0.00184646,0.00015748 0.00251969,0.000503937 0.000669291,0.000350394 0.00122835,0.000933071 0.00166142,0.00176772 0.000433071,0.000822835 0.000787402,0.00194488 0.00107087,0.00337008 0.000259843,0.00135039 0.000519685,0.00255906 0.000779528,0.00362992 0.00026378,0.00107087 0.0005,0.0019685 0.000724409,0.00268898 0.000224409,0.000732283 0.00042126,0.00125197 0.00057874,0.00157874l0.00659843 0c-0.000169291,-0.000326772 -0.00034252,-0.000795276 -0.000527559,-0.00140945 -0.000188976,-0.000622047 -0.000385827,-0.00135433 -0.000594488,-0.00218504 -0.000208661,-0.000830709 -0.000429134,-0.00172047 -0.000649606,-0.00267717 -0.000232283,-0.00096063 -0.000464567,-0.00193701 -0.000704724,-0.00292913 -0.000374016,-0.00170079 -0.000917323,-0.00309449 -0.00162598,-0.00420079 -0.000700787,-0.0011063 -0.00163386,-0.00188976 -0.00279921,-0.00235039l0 -0.000129921c0.000787402,-0.000307087 0.00152756,-0.000716535 0.0022126,-0.00124016 0.000688976,-0.000511811 0.00129528,-0.00112598 0.00182283,-0.00183465 0.000527559,-0.000700787 0.000940945,-0.0015 0.00123622,-0.00237402 0.000299213,-0.000874016 0.000448819,-0.00182283 0.000456693,-0.00284252 -7.87402e-006,-0.00148031 -0.000224409,-0.00275591 -0.000649606,-0.00380315 -0.00042126,-0.00105512 -0.000992126,-0.0019252 -0.00170866,-0.00262598 -0.000724409,-0.000692913 -0.00152756,-0.00124409 -0.00242126,-0.00165748 -0.000889764,-0.000405512 -0.00181496,-0.000708661 -0.00276378,-0.000909449 -0.000956693,-0.00019685 -0.00187402,-0.000326772 -0.00277165,-0.000385827 -0.000889764,-5.51181e-005 -0.00169291,-8.66142e-005 -0.00240157,-7.87402e-005 -0.00109055,0 -0.00214567,3.14961e-005 -0.0031811,9.44882e-005 -0.00103543,5.90551e-005 -0.00200394,0.000145669 -0.00292126,0.000248031 -0.00092126,9.84252e-005 -0.00174409,0.000220472 -0.00248819,0.000354331l0 0.032937zm0.00637795 -0.0284685c0.000259843,-8.66142e-005 0.000637795,-0.000153543 0.0011378,-0.00019685 0.000488189,-4.33071e-005 0.00109843,-6.29921e-005 0.00181496,-6.29921e-005 0.000598425,-7.87402e-006 0.0012126,5.51181e-005 0.00185827,0.000192913 0.000633858,0.000137795 0.00123622,0.000393701 0.00179921,0.000751969 0.000559055,0.000370079 0.00101181,0.000885827 0.0013622,0.00156299 0.000346457,0.000673228 0.000527559,0.00154331 0.000535433,0.00261024 -7.87402e-006,0.00106693 -0.000240157,0.00199213 -0.000708661,0.00277953 -0.000472441,0.000795276 -0.0011378,0.00140945 -0.00201181,0.00185039 -0.000874016,0.000437008 -0.00191732,0.00065748 -0.0031378,0.000665354l-0.00264961 0 0 -0.0101535z"/>
  <path id="123456789101112" class="fil8" d="M1.07452 0.543496c6.29921e-005,-0.000354331 0.000106299,-0.000748031 0.000137795,-0.00118898 1.9685e-005,-0.000433071 3.54331e-005,-0.000893701 3.54331e-005,-0.00137402 -7.87402e-006,-0.00261024 -0.000413386,-0.00480315 -0.00120866,-0.0065748 -0.000795276,-0.00177953 -0.00190945,-0.00312205 -0.00335433,-0.00403543 -0.00144882,-0.000905512 -0.00314961,-0.00136614 -0.00511417,-0.00136614 -0.00141732,7.87402e-006 -0.00270472,0.000232283 -0.00387008,0.000681102 -0.00115748,0.000440945 -0.00218504,0.00107087 -0.00308268,0.00187008 -0.000897638,0.00080315 -0.00164961,0.00174409 -0.00225591,0.00283071 -0.000614173,0.00107874 -0.00107087,0.00226378 -0.00138976,0.00353543 -0.000311024,0.00127953 -0.000468504,0.00261811 -0.000468504,0.00401575 7.87402e-006,0.00251575 0.000468504,0.00467717 0.00138189,0.00649606 0.000909449,0.00182283 0.00223228,0.00321654 0.00397638,0.00420866 0.00174409,0.000984252 0.0038622,0.00147638 0.00635827,0.00148819 0.00100394,0 0.00197638,-5.51181e-005 0.00291339,-0.000165354 0.000940945,-0.000110236 0.00182283,-0.000267717 0.00264961,-0.000476378 0.000830709,-0.000212598 0.00158268,-0.000456693 0.00224803,-0.000748031l-0.000909449 -0.0044252c-0.000818898,0.000291339 -0.00170866,0.000527559 -0.00267717,0.000708661 -0.00096063,0.000188976 -0.00203937,0.000283465 -0.00322441,0.000291339 -0.000877953,0 -0.00170079,-0.000110236 -0.00247638,-0.000318898 -0.000771654,-0.000216535 -0.00146063,-0.000559055 -0.00205906,-0.00101969 -0.000602362,-0.000464567 -0.00108661,-0.00106299 -0.00144882,-0.00179528 -0.000362205,-0.000728346 -0.000562992,-0.00161417 -0.000614173,-0.0026378l0.0144528 0zm-0.0144528 -0.00447244c4.33071e-005,-0.000606299 0.000161417,-0.00123622 0.000354331,-0.00187795 0.000188976,-0.000653543 0.000472441,-0.00125197 0.000830709,-0.0018189 0.000370079,-0.000555118 0.000826772,-0.00101181 0.00138189,-0.00136614 0.000559055,-0.000346457 0.00122441,-0.000527559 0.00199213,-0.000535433 0.000787402,7.87402e-006 0.00145276,0.000181102 0.00198819,0.000523622 0.000535433,0.000338583 0.00096063,0.000779528 0.00127953,0.00133071 0.000311024,0.000555118 0.000543307,0.00115748 0.000673228,0.00180709 0.000137795,0.000649606 0.000192913,0.00130315 0.000181102,0.00193701l-0.0086811 0z"/>
  <path id="12345678910111213" class="fil8" d="M1.08458 0.529476l-0.00559843 0c4.33071e-005,0.00109843 8.66142e-005,0.00230709 0.000125984,0.00361024 2.75591e-005,0.00130315 5.11811e-005,0.00273228 5.11811e-005,0.0042874l0 0.0259528 0.00642126 0 0 -0.0120197 8.66142e-005 0c0.000346457,0.000543307 0.00080315,0.00101969 0.00135827,0.00144488 0.000559055,0.00042126 0.00120079,0.000751969 0.00194094,0.001 0.00073622,0.000244094 0.00154724,0.000366142 0.00242913,0.000374016 0.000992126,0 0.00196063,-0.00015748 0.00291339,-0.000476378 0.000964567,-0.000318898 0.0018622,-0.000811024 0.00270866,-0.0014685 0.000838583,-0.00065748 0.00158268,-0.00148819 0.00223228,-0.00250787 0.000645669,-0.00101575 0.00114961,-0.00221654 0.00151969,-0.00360236 0.000370079,-0.00138189 0.000555118,-0.0029685 0.000562992,-0.00474803 -7.87402e-006,-0.00185827 -0.00023622,-0.00355118 -0.000692913,-0.00506299 -0.000456693,-0.00151181 -0.00109055,-0.00281102 -0.00191732,-0.00390551 -0.000830709,-0.00108268 -0.00179921,-0.00192126 -0.00291339,-0.00250787 -0.00112205,-0.000586614 -0.00234646,-0.00088189 -0.00367717,-0.000889764 -0.00156693,7.87402e-006 -0.00295669,0.000330709 -0.00416535,0.000984252 -0.00120866,0.000649606 -0.00220472,0.00159055 -0.00299213,0.00283465l-8.66142e-005 0 -0.000307087 -0.00329921zm0.001 0.0098937c7.87402e-006,-0.000980315 0.000208661,-0.00186614 0.000598425,-0.00265354 0.000393701,-0.000787402 0.000913386,-0.00141732 0.00157874,-0.00187795 0.000665354,-0.000472441 0.00141732,-0.000712598 0.00224803,-0.000716535 0.000795276,3.93701e-006 0.00149213,0.000185039 0.00209055,0.000555118 0.000602362,0.000362205 0.00109843,0.000874016 0.00150394,0.00153937 0.000405512,0.000665354 0.000708661,0.00144882 0.00092126,0.00235433 0.000200787,0.000901575 0.00030315,0.0018937 0.00030315,0.00297244 0,0.00109055 -0.000102362,0.00209055 -0.000311024,0.00300787 -0.000208661,0.000917323 -0.000527559,0.0017126 -0.000940945,0.0023937 -0.00042126,0.000681102 -0.000933071,0.00120866 -0.00154724,0.0015748 -0.000614173,0.000377953 -0.00133071,0.000566929 -0.00214961,0.000574803 -0.000547244,0 -0.00107874,-0.000110236 -0.00158268,-0.000318898 -0.000515748,-0.000216535 -0.000968504,-0.000535433 -0.00138189,-0.000968504 -0.000405512,-0.000429134 -0.000724409,-0.000972441 -0.00096063,-0.00162205 -0.000240157,-0.00065748 -0.000362205,-0.0014252 -0.000370079,-0.00229921l0 -0.00451575z"/>
  <path id="1234567891011121314" class="fil8" d="M1.12512 0.543496c6.29921e-005,-0.000354331 0.000106299,-0.000748031 0.000137795,-0.00118898 1.9685e-005,-0.000433071 3.54331e-005,-0.000893701 3.54331e-005,-0.00137402 -7.87402e-006,-0.00261024 -0.000413386,-0.00480315 -0.00120866,-0.0065748 -0.000795276,-0.00177953 -0.00190945,-0.00312205 -0.00335433,-0.00403543 -0.00144882,-0.000905512 -0.00314961,-0.00136614 -0.00511417,-0.00136614 -0.00141732,7.87402e-006 -0.00270472,0.000232283 -0.00387008,0.000681102 -0.00115748,0.000440945 -0.00218504,0.00107087 -0.00308268,0.00187008 -0.000897638,0.00080315 -0.00164961,0.00174409 -0.00225591,0.00283071 -0.000614173,0.00107874 -0.00107087,0.00226378 -0.00138976,0.00353543 -0.000311024,0.00127953 -0.000468504,0.00261811 -0.000468504,0.00401575 7.87402e-006,0.00251575 0.000468504,0.00467717 0.00138189,0.00649606 0.000909449,0.00182283 0.00223228,0.00321654 0.00397638,0.00420866 0.00174409,0.000984252 0.0038622,0.00147638 0.00635827,0.00148819 0.00100394,0 0.00197638,-5.51181e-005 0.00291339,-0.000165354 0.000940945,-0.000110236 0.00182283,-0.000267717 0.00264961,-0.000476378 0.000830709,-0.000212598 0.00158268,-0.000456693 0.00224803,-0.000748031l-0.000909449 -0.0044252c-0.000818898,0.000291339 -0.00170866,0.000527559 -0.00267717,0.000708661 -0.00096063,0.000188976 -0.00203937,0.000283465 -0.00322441,0.000291339 -0.000877953,0 -0.00170079,-0.000110236 -0.00247638,-0.000318898 -0.000771654,-0.000216535 -0.00146063,-0.000559055 -0.00205906,-0.00101969 -0.000602362,-0.000464567 -0.00108661,-0.00106299 -0.00144882,-0.00179528 -0.000362205,-0.000728346 -0.000562992,-0.00161417 -0.000614173,-0.0026378l0.0144528 0zm-0.0144528 -0.00447244c4.33071e-005,-0.000606299 0.000161417,-0.00123622 0.000354331,-0.00187795 0.000188976,-0.000653543 0.000472441,-0.00125197 0.000830709,-0.0018189 0.000370079,-0.000555118 0.000826772,-0.00101181 0.00138189,-0.00136614 0.000559055,-0.000346457 0.00122441,-0.000527559 0.00199213,-0.000535433 0.000787402,7.87402e-006 0.00145276,0.000181102 0.00198819,0.000523622 0.000535433,0.000338583 0.00096063,0.000779528 0.00127953,0.00133071 0.000311024,0.000555118 0.000543307,0.00115748 0.000673228,0.00180709 0.000137795,0.000649606 0.000192913,0.00130315 0.000181102,0.00193701l-0.0086811 0z"/>
  <path id="123456789101112131415" class="fil8" d="M1.13111 0.535205c0.000795276,-0.000484252 0.00170079,-0.00088189 0.00272835,-0.00118504 0.00102756,-0.000295276 0.00209843,-0.000456693 0.00321654,-0.000464567 0.00115748,7.87402e-006 0.00205512,0.00019685 0.00269291,0.000559055 0.000629921,0.000370079 0.00106299,0.000866142 0.00130709,0.00149606 0.000240157,0.000637795 0.000354331,0.00135433 0.00034252,0.00215748 -0.00193307,0 -0.00369685,0.000181102 -0.00530315,0.000547244 -0.0016063,0.000370079 -0.00299606,0.000925197 -0.00417323,0.00167717 -0.00117717,0.000751969 -0.00209055,0.00170079 -0.00273228,0.00284252 -0.000653543,0.00114567 -0.000976378,0.00249606 -0.000984252,0.00404331 0,0.000984252 0.000173228,0.00190945 0.000503937,0.00277953 0.000334646,0.000874016 0.000811024,0.00164173 0.00144094,0.00230709 0.000629921,0.000673228 0.00138976,0.00120079 0.00228346,0.0015748 0.000889764,0.000385827 0.00189764,0.00057874 0.00301969,0.000586614 0.000901575,0 0.00174803,-0.000122047 0.00255118,-0.000354331 0.00080315,-0.000232283 0.00152756,-0.000570866 0.00218504,-0.00101181 0.00065748,-0.000448819 0.00122047,-0.000992126 0.00168504,-0.00162598l0.000129921 0 0.000389764 0.00251575 0.00577165 0c-8.66142e-005,-0.0005 -0.000149606,-0.00105512 -0.000200787,-0.00166929 -5.11811e-005,-0.00061811 -8.66142e-005,-0.00126772 -0.00011811,-0.00195276 -1.9685e-005,-0.00069685 -2.75591e-005,-0.00139764 -2.75591e-005,-0.0021063l0 -0.00885433c7.87402e-006,-0.00133858 -0.000137795,-0.00260236 -0.000433071,-0.00380315 -0.00030315,-0.00120866 -0.000811024,-0.00227953 -0.00152756,-0.00322047 -0.000716535,-0.000933071 -0.00169291,-0.00167717 -0.00292913,-0.0022126 -0.00123622,-0.000543307 -0.00279134,-0.000822835 -0.00465748,-0.000830709 -0.00125984,7.87402e-006 -0.00242126,0.000114173 -0.00349213,0.000318898 -0.00106299,0.000200787 -0.00201181,0.000456693 -0.00283465,0.000767717 -0.000826772,0.000311024 -0.00150787,0.000625984 -0.00204724,0.000952756l0.0012126 0.00416535zm0.0104606 0.0101575c-7.87402e-006,0.00076378 -0.000145669,0.00141732 -0.00042126,0.00195276 -0.000267717,0.000527559 -0.000606299,0.00096063 -0.00102756,0.0012874 -0.000417323,0.000322835 -0.000858268,0.000562992 -0.00131496,0.000708661 -0.000464567,0.000141732 -0.00088189,0.000216535 -0.00127165,0.000216535 -0.000543307,0 -0.00104331,-0.00011811 -0.00150394,-0.000346457 -0.000456693,-0.000224409 -0.000826772,-0.000586614 -0.00110236,-0.00107087 -0.000279528,-0.000492126 -0.000425197,-0.00111417 -0.000433071,-0.00188189 7.87402e-006,-0.000874016 0.000216535,-0.00159055 0.000614173,-0.00216142 0.000405512,-0.000566929 0.000940945,-0.00100787 0.00162205,-0.00132283 0.000677165,-0.000318898 0.00142913,-0.000543307 0.00227165,-0.000673228 0.000830709,-0.000125984 0.00168898,-0.000188976 0.00256693,-0.000181102l0 0.00347244z"/>
  <path id="12345678910111213141516" class="fil8" d="M1.15142 0.529476l0 0.00473228 0.00316929 0 0 0.0111535c-7.87402e-006,0.000452756 7.87402e-006,0.000980315 4.33071e-005,0.00158268 2.75591e-005,0.000594488 0.00011811,0.00122047 0.000248031,0.00187402 0.000133858,0.000649606 0.000346457,0.0012874 0.000641732,0.00190945 0.000295276,0.000622047 0.000700787,0.00118504 0.00122441,0.00169291 0.000519685,0.000503937 0.00117717,0.000901575 0.00198031,0.00120079 0.00080315,0.00030315 0.0017874,0.000452756 0.00293701,0.00046063 0.000940945,0 0.00177953,-5.11811e-005 0.00252362,-0.000149606 0.00073622,-0.000102362 0.00133071,-0.000240157 0.00177165,-0.000413386l-8.66142e-005 -0.00490551c-0.000318898,6.69291e-005 -0.000629921,0.00011811 -0.000948819,0.000161417 -0.000311024,3.54331e-005 -0.000692913,5.51181e-005 -0.00113386,5.51181e-005 -0.000976378,7.87402e-006 -0.00169291,-0.000311024 -0.00216142,-0.000968504 -0.000472441,-0.00065748 -0.000704724,-0.00170472 -0.000704724,-0.00315354l0 -0.0105 0.00533858 0 0 -0.00473228 -0.00533858 0 0 -0.00629134 -0.00633465 0.00186614 0 0.0044252 -0.00316929 0z"/>
  <polygon class="fil4" points="0.160142,0.527055 0.695953,0.527055 0.692236,0.551795 0.156425,0.551795 "/>
 </g>
</svg>
